<svg width="1440" height="1024" viewBox="0 0 1440 1024" fill="none" xmlns="http://www.w3.org/2000/svg">
<rect width="1440" height="1024" fill="#F2822C"/>
<rect width="1440" height="1024" fill="url(#paint0_linear)"/>
<path d="M301.544 672.344V346.904H514.088V672.344H301.544ZM482.12 442.232H500.264V423.8H435.464V442.232H462.248V534.104C462.248 574.616 444.296 594.872 408.392 594.872C390.344 594.872 377 589.784 368.36 579.608C359.72 569.432 355.4 555.128 355.4 536.696V442.232H381.32V423.8H314.792V442.232H334.088V537.272C334.088 557.432 339.272 575.288 349.64 590.84C360.2 606.2 379.4 613.88 407.24 613.88C426.44 613.88 441.416 610.04 452.168 602.36C463.112 594.488 470.792 584.504 475.208 572.408C479.816 560.12 482.12 547.352 482.12 534.104V442.232ZM507.138 672.344V346.904H686.85V672.344H507.138ZM672.45 558.008C672.45 546.104 669.186 535.736 662.658 526.904C656.13 517.88 646.05 512.312 632.418 510.2V509.048C642.018 507.128 649.794 502.424 655.746 494.936C661.698 487.448 664.674 478.712 664.674 468.728C664.674 455.288 659.97 444.44 650.562 436.184C641.346 427.928 627.234 423.8 608.226 423.8H522.114V442.232H545.73V592.568H522.114V611H609.666C630.402 611 646.05 605.912 656.61 595.736C667.17 585.368 672.45 572.792 672.45 558.008ZM642.21 473.624C642.21 483.992 638.562 491.96 631.266 497.528C624.162 502.904 615.042 505.592 603.906 505.592H566.754V442.232H604.77C616.482 442.232 625.602 444.536 632.13 449.144C638.85 453.752 642.21 461.912 642.21 473.624ZM649.986 556.856C649.986 569.336 645.954 578.456 637.89 584.216C630.018 589.784 619.362 592.568 605.922 592.568H566.754V522.872H612.834C625.122 522.872 634.338 525.944 640.482 532.088C646.818 538.04 649.986 546.296 649.986 556.856ZM679.825 672.344V346.904H824.689V672.344H679.825ZM706.033 492.632L701.425 522.296L718.129 524.312L723.025 502.136C730.129 498.68 738.385 496.952 747.793 496.952C759.313 496.952 766.993 499.832 770.833 505.592C774.865 511.352 776.881 518.84 776.881 528.056V539.576C773.425 539.192 769.681 538.904 765.649 538.712C761.809 538.52 757.969 538.424 754.129 538.424C739.729 538.424 726.097 541.016 713.233 546.2C700.561 551.192 694.225 561.752 694.225 577.88C694.225 591.512 698.545 600.92 707.185 606.104C716.017 611.288 724.657 613.88 733.105 613.88C743.473 613.88 752.305 611.192 759.601 605.816C767.089 600.44 772.849 594.296 776.881 587.384V587.96C777.265 605.24 785.041 613.88 800.209 613.88C806.161 613.88 811.729 612.44 816.913 609.56L816.625 596.312C814.129 597.464 811.249 598.04 807.985 598.04C800.689 598.04 797.041 593.432 797.041 584.216V523.16C797.041 494.552 781.777 480.248 751.249 480.248C742.801 480.248 734.833 481.208 727.345 483.128C719.857 485.048 712.753 488.216 706.033 492.632ZM776.881 562.904C776.113 573.464 771.793 581.816 763.921 587.96C756.241 594.104 747.985 597.176 739.153 597.176C733.585 597.176 728.209 595.64 723.025 592.568C717.841 589.496 715.249 583.832 715.249 575.576C715.249 565.592 719.089 559.16 726.769 556.28C734.641 553.208 743.377 551.672 752.977 551.672C757.201 551.672 761.329 551.864 765.361 552.248C769.393 552.632 773.233 552.92 776.881 553.112V562.904ZM817.638 672.344V346.904H988.71V672.344H817.638ZM918.15 611H982.95V594.584H960.774V528.92C960.774 511.832 956.55 499.448 948.102 491.768C939.654 484.088 929.19 480.248 916.71 480.248C895.974 480.248 880.998 488.696 871.782 505.592V482.84H828.582V499.256H851.622V594.584H829.158V611H894.246V594.584H871.782V534.68C872.166 524.888 875.814 516.248 882.726 508.76C889.83 501.08 899.142 497.24 910.662 497.24C919.302 497.24 926.406 500.12 931.974 505.88C937.542 511.448 940.326 521.144 940.326 534.968V594.584H918.15V611ZM981.888 672.344V346.904H1137.7V672.344H981.888ZM1070.88 611H1131.36V594.584H1113.22L1070.88 541.592L1105.15 499.256H1124.74V482.84H1064.83V499.256H1084.7L1055.33 535.544H1032.29V412.856H989.088V429.272H1011.84V594.584H989.664V611H1050.72V594.584H1032.29V551.096H1055.04L1090.18 594.584H1070.88V611Z" fill="black"/>
<defs>
<linearGradient id="paint0_linear" x1="720" y1="0" x2="720" y2="1024" gradientUnits="userSpaceOnUse">
<stop stop-color="#008CFF"/>
<stop offset="0.46875" stop-color="#004A87" stop-opacity="0.53125"/>
<stop offset="1" stop-opacity="0"/>
</linearGradient>
</defs>
</svg>
